<svg xmlns="http://www.w3.org/2000/svg" xmlns:xlink="http://www.w3.org/1999/xlink" width="2000" zoomAndPan="magnify" viewBox="0 0 1500 1499.999933" height="2000" preserveAspectRatio="xMidYMid meet" version="1.0"><defs><clipPath id="b87d2b8b1b"><path d="M 53.691406 53.691406 L 1446.308594 53.691406 L 1446.308594 1446.308594 L 53.691406 1446.308594 Z M 53.691406 53.691406 " clip-rule="nonzero"/></clipPath><clipPath id="7cee1d0cdf"><path d="M 750 53.691406 C 365.441406 53.691406 53.691406 365.441406 53.691406 750 C 53.691406 1134.558594 365.441406 1446.308594 750 1446.308594 C 1134.558594 1446.308594 1446.308594 1134.558594 1446.308594 750 C 1446.308594 365.441406 1134.558594 53.691406 750 53.691406 Z M 750 53.691406 " clip-rule="nonzero"/></clipPath><clipPath id="5763119749"><path d="M 0.691406 0.691406 L 1393.308594 0.691406 L 1393.308594 1393.308594 L 0.691406 1393.308594 Z M 0.691406 0.691406 " clip-rule="nonzero"/></clipPath><clipPath id="a442543db0"><path d="M 697 0.691406 C 312.441406 0.691406 0.691406 312.441406 0.691406 697 C 0.691406 1081.558594 312.441406 1393.308594 697 1393.308594 C 1081.558594 1393.308594 1393.308594 1081.558594 1393.308594 697 C 1393.308594 312.441406 1081.558594 0.691406 697 0.691406 Z M 697 0.691406 " clip-rule="nonzero"/></clipPath><clipPath id="818fff21a2"><rect x="0" width="1394" y="0" height="1394"/></clipPath><clipPath id="2707df35d0"><path d="M 106.867188 119.730469 L 1393 119.730469 L 1393 1380.480469 L 106.867188 1380.480469 Z M 106.867188 119.730469 " clip-rule="nonzero"/></clipPath><clipPath id="0f74d1981a"><path d="M 646.367188 298 L 853.367188 298 L 853.367188 495.007812 L 646.367188 495.007812 Z M 646.367188 298 " clip-rule="nonzero"/></clipPath><clipPath id="873bcc19e8"><path d="M 646.367188 297.757812 L 853.367188 297.757812 L 853.367188 495 L 646.367188 495 Z M 646.367188 297.757812 " clip-rule="nonzero"/></clipPath><clipPath id="4c787afbc7"><path d="M 444.425781 528 L 1052 528 L 1052 1040.710938 L 444.425781 1040.710938 Z M 444.425781 528 " clip-rule="nonzero"/></clipPath></defs><g clip-path="url(#b87d2b8b1b)"><g clip-path="url(#7cee1d0cdf)"><g transform="matrix(1, 0, 0, 1, 53, 53)"><g clip-path="url(#818fff21a2)"><g clip-path="url(#5763119749)"><g clip-path="url(#a442543db0)"><path fill="#ff3131" d="M 0.691406 0.691406 L 1393.308594 0.691406 L 1393.308594 1393.308594 L 0.691406 1393.308594 Z M 0.691406 0.691406 " fill-opacity="1" fill-rule="nonzero"/></g></g></g></g></g></g><g clip-path="url(#2707df35d0)"><path fill="#0b2344" d="M 834.574219 1380.21875 C 834.574219 1380.21875 765.398438 1295.9375 603.917969 1268.628906 C 446.71875 1231.976562 256.558594 1078.515625 207.75 863.113281 C 151.21875 649.675781 246.324219 426.597656 367.949219 322.339844 C 488.738281 212.820312 601.902344 195.792969 599.636719 194.320312 C 602.394531 197.566406 490.117188 217.097656 372.476562 327.0625 C 253.753906 431.960938 163.417969 652.136719 220.738281 859.816406 C 270.53125 1069.5625 456.707031 1216.425781 608.789062 1250.574219 C 645.246094 1256.183594 677.671875 1264.890625 706.160156 1275.074219 C 813.46875 1313.109375 854.746094 1362.261719 854.746094 1362.261719 Z M 665.371094 1380.21875 C 665.371094 1380.21875 734.546875 1295.9375 896.027344 1268.628906 C 1053.226562 1231.976562 1243.390625 1078.515625 1292.148438 863.113281 C 1348.679688 649.726562 1253.523438 426.648438 1131.949219 322.339844 C 1011.160156 212.820312 897.996094 195.792969 900.257812 194.320312 C 897.550781 197.566406 1009.78125 217.097656 1127.421875 327.0625 C 1246.144531 431.960938 1336.476562 652.136719 1279.160156 859.816406 C 1229.414062 1069.5625 1043.1875 1216.429688 891.105469 1250.574219 C 854.648438 1256.183594 822.175781 1264.890625 793.738281 1275.074219 C 686.429688 1313.109375 645.148438 1362.261719 645.148438 1362.261719 Z M 567.410156 1219.429688 C 582.171875 1243.191406 626.257812 1266.121094 626.257812 1266.121094 C 626.257812 1266.121094 634.128906 1229.367188 615.875 1185.527344 C 601.3125 1150.398438 557.277344 1135.292969 557.277344 1135.292969 C 557.277344 1135.292969 546.699219 1186.070312 567.410156 1219.429688 Z M 480.078125 1328.066406 C 480.078125 1328.066406 524.605469 1341.742188 557.078125 1321.914062 C 597.621094 1297.167969 612.875 1262.824219 612.875 1262.824219 C 612.875 1262.824219 563.722656 1255.394531 537.792969 1265.972656 C 501.332031 1280.78125 480.078125 1328.066406 480.078125 1328.066406 Z M 484.261719 1180.414062 C 494.445312 1205.898438 533.117188 1235.519531 533.117188 1235.519531 C 533.117188 1235.519531 546.992188 1201.421875 536.855469 1155.960938 C 528.738281 1119.597656 488.835938 1097.507812 488.835938 1097.507812 C 488.835938 1097.507812 469.894531 1144.644531 484.261719 1180.414062 Z M 381.480469 1270.351562 C 381.480469 1270.351562 422.121094 1291.117188 456.855469 1277.535156 C 500.203125 1260.5625 520.71875 1230.007812 520.71875 1230.007812 C 520.71875 1230.007812 474.519531 1214.507812 447.703125 1220.265625 C 410.015625 1228.335938 381.480469 1270.351562 381.480469 1270.351562 Z M 408.738281 1127.667969 C 414.246094 1153.992188 446.523438 1189.171875 446.523438 1189.171875 C 446.523438 1189.171875 465.710938 1158.617188 463.644531 1113.007812 C 461.972656 1076.546875 427.285156 1048.40625 427.285156 1048.40625 C 427.285156 1048.40625 400.964844 1090.71875 408.738281 1127.667969 Z M 294.246094 1196.992188 C 294.246094 1196.992188 329.917969 1223.957031 365.734375 1216.722656 C 410.460938 1207.71875 435.503906 1181.742188 435.503906 1181.742188 C 435.503906 1181.742188 393.582031 1158.910156 366.71875 1159.894531 C 328.980469 1161.273438 294.246094 1196.992188 294.246094 1196.992188 Z M 343.691406 1062.230469 C 344.578125 1088.601562 369.71875 1128.011719 369.71875 1128.011719 C 369.71875 1128.011719 393.433594 1101.789062 399.191406 1057.457031 C 403.816406 1021.984375 375.082031 988.921875 375.082031 988.921875 C 375.082031 988.921875 342.511719 1025.230469 343.691406 1062.230469 Z M 221.425781 1109.613281 C 221.425781 1109.613281 251.292969 1141.691406 287.0625 1140.804688 C 331.785156 1139.722656 360.324219 1118.910156 360.324219 1118.910156 C 360.324219 1118.910156 323.71875 1089.734375 297.640625 1086.140625 C 260.984375 1081.074219 221.425781 1109.613281 221.425781 1109.613281 Z M 290.898438 986.804688 C 287.210938 1012.390625 304.773438 1054.703125 304.773438 1054.703125 C 304.773438 1054.703125 332.128906 1033.398438 345.21875 991.625 C 355.746094 958.167969 333.605469 921.367188 333.605469 921.367188 C 333.605469 921.367188 296.015625 950.9375 290.898438 986.804688 Z M 164.796875 1011.800781 C 164.796875 1011.800781 188.117188 1047.816406 222.804688 1053.078125 C 266.152344 1059.621094 297.246094 1044.417969 297.246094 1044.417969 C 297.246094 1044.417969 266.890625 1010.027344 242.339844 1002.105469 C 207.796875 990.9375 164.796875 1011.800781 164.796875 1011.800781 Z M 252.671875 903.902344 C 244.796875 927.960938 254.539062 971.796875 254.539062 971.796875 C 254.539062 971.796875 284.554688 955.90625 304.28125 917.777344 C 320.125 887.269531 305.019531 848.007812 305.019531 848.007812 C 305.019531 848.007812 263.742188 870.148438 252.671875 903.902344 Z M 126.714844 906.507812 C 126.714844 906.507812 143.097656 945.277344 175.671875 956.25 C 216.359375 969.976562 248.980469 960.582031 248.980469 960.582031 C 248.980469 960.582031 225.558594 922.253906 203.171875 910.394531 C 171.785156 893.765625 126.714844 906.507812 126.714844 906.507812 Z M 229.25 816.175781 C 217.539062 838.070312 219.460938 882.054688 219.460938 882.054688 C 219.460938 882.054688 251.144531 871.820312 276.730469 838.363281 C 297.199219 811.648438 289.324219 771.15625 289.324219 771.15625 C 289.324219 771.15625 245.632812 785.425781 229.25 816.175781 Z M 107.230469 797.230469 C 107.230469 797.230469 116.480469 837.429688 146.050781 853.566406 C 183 873.742188 216.113281 870.199219 216.113281 870.199219 C 216.113281 870.199219 200.023438 829.214844 180.441406 813.960938 C 152.890625 792.605469 107.230469 797.230469 107.230469 797.230469 Z M 221.476562 725.449219 C 206.46875 744.585938 200.8125 787.34375 200.8125 787.34375 C 200.8125 787.34375 233.089844 782.867188 263.496094 754.96875 C 287.800781 732.628906 287.109375 692.238281 287.109375 692.238281 C 287.109375 692.238281 242.535156 698.582031 221.476562 725.449219 Z M 106.9375 686.382812 C 106.9375 686.382812 109.003906 726.777344 134.785156 747.34375 C 167.011719 773.074219 199.53125 775.335938 199.53125 775.335938 C 199.53125 775.335938 190.972656 733.023438 174.6875 715.015625 C 151.808594 689.679688 106.9375 686.382812 106.9375 686.382812 Z M 229.398438 632.457031 C 211.636719 648.347656 198.941406 688.695312 198.941406 688.695312 C 198.941406 688.695312 230.875 689.875 264.921875 668.078125 C 292.226562 650.660156 298.378906 611.546875 298.378906 611.546875 C 298.378906 611.546875 254.292969 610.121094 229.398438 632.457031 Z M 125.484375 575.335938 C 125.484375 575.335938 120.613281 614.644531 141.96875 638.902344 C 168.683594 669.210938 199.730469 676.933594 199.730469 676.933594 C 199.730469 676.933594 198.695312 634.671875 186.003906 614.449219 C 168.242188 586.160156 125.484375 575.335938 125.484375 575.335938 Z M 253.554688 541.386719 C 233.726562 553.683594 214.589844 590.4375 214.589844 590.4375 C 214.589844 590.4375 245.191406 597.03125 281.796875 581.78125 C 311.074219 569.625 323.71875 532.921875 323.71875 532.921875 C 323.71875 532.921875 281.355469 524.066406 253.554688 541.386719 Z M 162.976562 468.519531 C 162.976562 468.519531 151.609375 505.617188 168.140625 532.675781 C 188.757812 566.476562 217.394531 579.222656 217.394531 579.222656 C 217.394531 579.222656 223.59375 538.234375 214.785156 516.585938 C 202.4375 486.230469 162.976562 468.519531 162.976562 468.519531 Z M 293.554688 456.21875 C 272.351562 464.730469 247.652344 496.957031 247.652344 496.957031 C 247.652344 496.957031 276.089844 508.519531 313.976562 500.054688 C 344.332031 493.316406 362.734375 460.007812 362.734375 460.007812 C 362.734375 460.007812 323.371094 444.210938 293.554688 456.21875 Z M 218.574219 370.507812 C 218.574219 370.507812 201.253906 404.410156 212.570312 433.339844 C 226.742188 469.5 252.226562 486.625 252.226562 486.625 C 252.226562 486.625 265.167969 448.097656 260.347656 425.761719 C 253.605469 394.320312 218.574219 370.507812 218.574219 370.507812 Z M 348.070312 379.609375 C 326.128906 384.234375 296.804688 411.101562 296.804688 411.101562 C 296.804688 411.101562 322.289062 427.089844 360.273438 425.367188 C 390.730469 423.992188 414.148438 395.011719 414.148438 395.011719 C 414.148438 395.011719 378.921875 373.164062 348.070312 379.609375 Z M 290.261719 284.109375 C 290.261719 284.109375 267.773438 313.878906 273.828125 343.742188 C 281.355469 381.039062 303.003906 401.898438 303.003906 401.898438 C 303.003906 401.898438 322.042969 366.917969 321.207031 344.53125 C 320.074219 313.089844 290.261719 284.109375 290.261719 284.109375 Z M 414.492188 314.46875 C 392.5 315.15625 359.632812 336.117188 359.632812 336.117188 C 359.632812 336.117188 381.480469 355.894531 418.480469 360.71875 C 448.097656 364.605469 475.652344 340.59375 475.652344 340.59375 C 475.652344 340.59375 445.292969 313.484375 414.492188 314.46875 Z M 374.9375 212.472656 C 374.9375 212.472656 348.171875 237.371094 348.90625 267.234375 C 349.792969 304.480469 367.160156 328.34375 367.160156 328.34375 C 367.160156 328.34375 391.515625 297.839844 394.519531 276.089844 C 398.75 245.488281 374.9375 212.472656 374.9375 212.472656 Z M 490.707031 262.363281 C 469.402344 259.3125 434.074219 273.925781 434.074219 273.925781 C 434.074219 273.925781 451.835938 296.707031 486.722656 307.628906 C 514.617188 316.386719 545.320312 297.9375 545.320312 297.9375 C 545.320312 297.9375 520.621094 266.644531 490.707031 262.363281 Z M 469.894531 157.222656 C 469.894531 157.222656 439.832031 176.703125 435.453125 205.636719 C 429.992188 241.75 442.6875 267.726562 442.6875 267.726562 C 442.6875 267.726562 471.371094 242.4375 477.964844 221.921875 C 487.261719 193.089844 469.894531 157.222656 469.894531 157.222656 Z M 573.414062 224.773438 C 553.339844 218.230469 516.78125 226.300781 516.78125 226.300781 C 516.78125 226.300781 530.019531 251.34375 561.800781 267.824219 C 587.238281 281.0625 620.007812 268.464844 620.007812 268.464844 C 620.007812 268.464844 601.507812 233.976562 573.414062 224.773438 Z M 571.199219 119.730469 C 571.199219 119.730469 538.875 133.40625 529.722656 160.566406 C 518.308594 194.464844 526.132812 221.675781 526.132812 221.675781 C 526.132812 221.675781 558.113281 202.140625 567.953125 183.496094 C 581.828125 157.320312 571.199219 119.730469 571.199219 119.730469 Z M 572.625 203.46875 C 572.625 203.46875 596.832031 217.148438 618.285156 209.769531 C 645.101562 200.566406 658.382812 182.460938 658.382812 182.460938 C 658.382812 182.460938 630.683594 171.882812 614.203125 174.636719 C 591.078125 178.625 572.625 203.46875 572.625 203.46875 Z M 942.570312 1135.292969 C 942.570312 1135.292969 898.535156 1150.449219 883.972656 1185.53125 C 865.71875 1229.417969 873.589844 1266.121094 873.589844 1266.121094 C 873.589844 1266.121094 917.675781 1243.191406 932.484375 1219.429688 C 953.25 1186.070312 942.570312 1135.292969 942.570312 1135.292969 Z M 962.152344 1265.972656 C 936.226562 1255.445312 887.074219 1262.824219 887.074219 1262.824219 C 887.074219 1262.824219 902.324219 1297.167969 942.867188 1321.914062 C 975.339844 1341.742188 1019.867188 1328.066406 1019.867188 1328.066406 C 1019.867188 1328.066406 998.5625 1280.78125 962.152344 1265.972656 Z M 1011.109375 1097.457031 C 1011.109375 1097.457031 971.15625 1119.550781 963.089844 1155.910156 C 952.953125 1201.371094 966.828125 1235.46875 966.828125 1235.46875 C 966.828125 1235.46875 1005.5 1205.847656 1015.683594 1180.363281 C 1030.003906 1144.644531 1011.109375 1097.457031 1011.109375 1097.457031 Z M 1052.242188 1220.214844 C 1025.425781 1214.460938 979.226562 1229.957031 979.226562 1229.957031 C 979.226562 1229.957031 999.792969 1260.511719 1043.140625 1277.488281 C 1077.828125 1291.066406 1118.464844 1270.304688 1118.464844 1270.304688 C 1118.464844 1270.304688 1089.878906 1228.335938 1052.242188 1220.214844 Z M 1072.660156 1048.40625 C 1072.660156 1048.40625 1037.925781 1076.546875 1036.300781 1113.007812 C 1034.234375 1158.617188 1053.421875 1189.171875 1053.421875 1189.171875 C 1053.421875 1189.171875 1085.699219 1153.992188 1091.210938 1127.667969 C 1098.933594 1090.71875 1072.660156 1048.40625 1072.660156 1048.40625 Z M 1133.226562 1159.894531 C 1106.363281 1158.910156 1064.445312 1181.742188 1064.445312 1181.742188 C 1064.445312 1181.742188 1089.488281 1207.71875 1134.160156 1216.722656 C 1169.980469 1223.957031 1205.652344 1196.992188 1205.652344 1196.992188 C 1205.652344 1196.992188 1170.964844 1161.273438 1133.226562 1159.894531 Z M 1124.863281 988.871094 C 1124.863281 988.871094 1096.078125 1021.933594 1100.753906 1057.410156 C 1106.511719 1101.738281 1130.226562 1127.964844 1130.226562 1127.964844 C 1130.226562 1127.964844 1155.367188 1088.503906 1156.253906 1062.179688 C 1157.386719 1025.230469 1124.863281 988.871094 1124.863281 988.871094 Z M 1202.257812 1086.140625 C 1176.179688 1089.734375 1139.574219 1118.910156 1139.574219 1118.910156 C 1139.574219 1118.910156 1168.160156 1139.722656 1212.835938 1140.804688 C 1248.605469 1141.691406 1278.46875 1109.613281 1278.46875 1109.613281 C 1278.46875 1109.613281 1238.910156 1081.074219 1202.257812 1086.140625 Z M 1166.289062 921.367188 C 1166.289062 921.367188 1144.148438 958.167969 1154.628906 991.625 C 1167.765625 1033.449219 1195.074219 1054.703125 1195.074219 1054.703125 C 1195.074219 1054.703125 1212.636719 1012.390625 1208.949219 986.804688 C 1203.878906 950.9375 1166.289062 921.367188 1166.289062 921.367188 Z M 1257.558594 1002.105469 C 1233.007812 1010.027344 1202.648438 1044.417969 1202.648438 1044.417969 C 1202.648438 1044.417969 1233.792969 1059.671875 1277.089844 1053.078125 C 1311.777344 1047.816406 1335.101562 1011.800781 1335.101562 1011.800781 C 1335.101562 1011.800781 1292.097656 990.9375 1257.558594 1002.105469 Z M 1194.875 848.007812 C 1194.875 848.007812 1179.769531 887.269531 1195.613281 917.777344 C 1215.394531 955.90625 1245.355469 971.796875 1245.355469 971.796875 C 1245.355469 971.796875 1255.097656 927.960938 1247.226562 903.902344 C 1236.15625 870.148438 1194.875 848.007812 1194.875 848.007812 Z M 1296.675781 910.347656 C 1274.289062 922.203125 1250.917969 960.53125 1250.917969 960.53125 C 1250.917969 960.53125 1283.539062 969.929688 1324.226562 956.203125 C 1356.796875 945.230469 1373.183594 906.460938 1373.183594 906.460938 C 1373.183594 906.460938 1328.113281 893.765625 1296.675781 910.347656 Z M 1210.621094 771.105469 C 1210.621094 771.105469 1202.75 811.597656 1223.214844 838.316406 C 1248.800781 871.773438 1280.4375 882.007812 1280.4375 882.007812 C 1280.4375 882.007812 1282.40625 838.019531 1270.695312 816.125 C 1254.261719 785.425781 1210.621094 771.105469 1210.621094 771.105469 Z M 1319.503906 814.011719 C 1299.921875 829.261719 1283.832031 870.246094 1283.832031 870.246094 C 1283.832031 870.246094 1316.945312 873.742188 1353.894531 853.617188 C 1383.464844 837.480469 1392.714844 797.28125 1392.714844 797.28125 C 1392.714844 797.28125 1347.007812 792.605469 1319.503906 814.011719 Z M 1212.785156 692.1875 C 1212.785156 692.1875 1212.097656 732.582031 1236.402344 754.917969 C 1266.757812 782.816406 1299.035156 787.292969 1299.035156 787.292969 C 1299.035156 787.292969 1293.425781 744.539062 1278.371094 725.398438 C 1257.363281 698.582031 1212.785156 692.1875 1212.785156 692.1875 Z M 1325.160156 715.015625 C 1308.875 733.023438 1300.316406 775.335938 1300.316406 775.335938 C 1300.316406 775.335938 1332.835938 773.074219 1365.0625 747.34375 C 1390.84375 726.726562 1392.910156 686.382812 1392.910156 686.382812 C 1392.910156 686.382812 1348.089844 689.679688 1325.160156 715.015625 Z M 1201.519531 611.546875 C 1201.519531 611.546875 1207.667969 650.660156 1234.976562 668.078125 C 1269.023438 689.875 1300.953125 688.695312 1300.953125 688.695312 C 1300.953125 688.695312 1288.261719 648.398438 1270.5 632.457031 C 1245.601562 610.121094 1201.519531 611.546875 1201.519531 611.546875 Z M 1313.84375 614.449219 C 1301.199219 634.621094 1300.117188 676.933594 1300.117188 676.933594 C 1300.117188 676.933594 1331.113281 669.210938 1357.878906 638.902344 C 1379.28125 614.644531 1374.414062 575.335938 1374.414062 575.335938 C 1374.414062 575.335938 1331.65625 586.160156 1313.84375 614.449219 Z M 1176.230469 532.921875 C 1176.230469 532.921875 1188.875 569.625 1218.148438 581.78125 C 1254.753906 597.03125 1285.359375 590.4375 1285.359375 590.4375 C 1285.359375 590.4375 1266.265625 553.683594 1246.390625 541.386719 C 1218.542969 524.066406 1176.230469 532.921875 1176.230469 532.921875 Z M 1285.113281 516.636719 C 1276.304688 538.285156 1282.503906 579.269531 1282.503906 579.269531 C 1282.503906 579.269531 1311.140625 566.574219 1331.753906 532.726562 C 1348.285156 505.664062 1336.921875 468.566406 1336.921875 468.566406 C 1336.921875 468.566406 1297.460938 486.230469 1285.113281 516.636719 Z M 1137.210938 460.007812 C 1137.210938 460.007812 1155.613281 493.265625 1185.972656 500.054688 C 1223.855469 508.519531 1252.292969 496.957031 1252.292969 496.957031 C 1252.292969 496.957031 1227.59375 464.730469 1206.339844 456.21875 C 1176.523438 444.210938 1137.210938 460.007812 1137.210938 460.007812 Z M 1239.550781 425.710938 C 1234.730469 448.097656 1247.667969 486.574219 1247.667969 486.574219 C 1247.667969 486.574219 1273.15625 469.453125 1287.324219 433.289062 C 1298.640625 404.359375 1281.324219 370.460938 1281.324219 370.460938 C 1281.324219 370.460938 1246.292969 394.320312 1239.550781 425.710938 Z M 1085.746094 395.058594 C 1085.746094 395.058594 1109.214844 424.039062 1139.625 425.417969 C 1177.65625 427.140625 1203.09375 411.148438 1203.09375 411.148438 C 1203.09375 411.148438 1173.71875 384.285156 1151.824219 379.660156 C 1121.023438 373.164062 1085.746094 395.058594 1085.746094 395.058594 Z M 1178.6875 344.578125 C 1177.851562 366.964844 1196.894531 401.949219 1196.894531 401.949219 C 1196.894531 401.949219 1218.542969 381.085938 1226.070312 343.792969 C 1232.074219 313.925781 1209.636719 284.160156 1209.636719 284.160156 C 1209.636719 284.160156 1179.820312 313.089844 1178.6875 344.578125 Z M 1024.246094 340.644531 C 1024.246094 340.644531 1051.847656 364.605469 1081.417969 360.765625 C 1118.417969 355.945312 1140.261719 336.214844 1140.261719 336.214844 C 1140.261719 336.214844 1107.394531 315.253906 1085.402344 314.566406 C 1054.554688 313.484375 1024.246094 340.644531 1024.246094 340.644531 Z M 1105.378906 276.042969 C 1108.378906 297.789062 1132.6875 328.292969 1132.6875 328.292969 C 1132.6875 328.292969 1150.054688 304.429688 1150.941406 267.1875 C 1151.675781 237.320312 1124.910156 212.425781 1124.910156 212.425781 C 1124.910156 212.425781 1101.148438 245.488281 1105.378906 276.042969 Z M 954.625 297.984375 C 954.625 297.984375 985.328125 316.4375 1013.226562 307.679688 C 1048.109375 296.757812 1065.871094 273.976562 1065.871094 273.976562 C 1065.871094 273.976562 1030.542969 259.363281 1009.238281 262.414062 C 979.277344 266.644531 954.625 297.984375 954.625 297.984375 Z M 1021.933594 221.871094 C 1028.527344 242.339844 1057.210938 267.679688 1057.210938 267.679688 C 1057.210938 267.679688 1069.90625 241.699219 1064.445312 205.585938 C 1060.066406 176.65625 1030.003906 157.171875 1030.003906 157.171875 C 1030.003906 157.171875 1012.632812 193.089844 1021.933594 221.871094 Z M 879.890625 268.414062 C 879.890625 268.414062 912.65625 281.011719 938.09375 267.777344 C 969.929688 251.292969 983.113281 226.25 983.113281 226.25 C 983.113281 226.25 946.558594 218.132812 926.484375 224.726562 C 898.390625 233.976562 879.890625 268.414062 879.890625 268.414062 Z M 931.945312 183.542969 C 941.832031 202.191406 973.816406 221.722656 973.816406 221.722656 C 973.816406 221.722656 981.636719 194.515625 970.222656 160.617188 C 961.070312 133.457031 928.746094 119.777344 928.746094 119.777344 C 928.746094 119.777344 918.070312 157.320312 931.945312 183.542969 Z M 885.695312 174.636719 C 869.210938 171.832031 841.5625 182.460938 841.5625 182.460938 C 841.5625 182.460938 854.796875 200.566406 881.660156 209.769531 C 903.113281 217.148438 927.320312 203.46875 927.320312 203.46875 C 927.320312 203.46875 908.820312 178.625 885.695312 174.636719 Z M 885.695312 174.636719 " fill-opacity="1" fill-rule="nonzero"/></g><g clip-path="url(#0f74d1981a)"><path fill="#ffbd59" d="M 750.265625 298.441406 L 782.195312 363.171875 L 853.625 373.550781 L 801.921875 423.96875 L 814.164062 495.109375 L 750.265625 461.527344 L 686.320312 495.109375 L 698.523438 423.96875 L 646.863281 373.550781 L 718.292969 363.171875 Z M 750.265625 298.441406 " fill-opacity="1" fill-rule="nonzero"/></g><g clip-path="url(#873bcc19e8)"><path fill="#ffbd59" d="M 749.765625 297.820312 L 781.738281 362.550781 L 853.167969 372.929688 L 801.46875 423.351562 L 813.667969 494.488281 L 749.765625 460.90625 L 685.867188 494.488281 L 698.066406 423.351562 L 646.367188 372.929688 L 717.796875 362.550781 Z M 749.765625 297.820312 " fill-opacity="1" fill-rule="nonzero"/><path fill="#ffbd59" d="M 749.765625 297.820312 L 781.738281 362.550781 L 853.167969 372.929688 L 801.46875 423.351562 L 813.667969 494.488281 L 749.765625 460.90625 L 685.867188 494.488281 L 698.066406 423.351562 L 646.367188 372.929688 L 717.796875 362.550781 Z M 749.765625 297.820312 " fill-opacity="1" fill-rule="nonzero"/><path fill="#ffbd59" d="M 749.765625 297.820312 L 781.738281 362.550781 L 853.167969 372.929688 L 801.46875 423.351562 L 813.667969 494.488281 L 749.765625 460.90625 L 685.867188 494.488281 L 698.066406 423.351562 L 646.367188 372.929688 L 717.796875 362.550781 Z M 749.765625 297.820312 " fill-opacity="1" fill-rule="nonzero"/></g><g clip-path="url(#4c787afbc7)"><path fill="#0b2344" d="M 1051.113281 656.867188 C 1050.285156 642.488281 1055.5625 626.414062 1046.007812 613.902344 C 1029.277344 609.292969 1012.589844 604.628906 995.804688 600.515625 C 994.921875 579.71875 996.566406 558.863281 995.039062 538.125 C 992.621094 523.972656 975.394531 528.902344 965.402344 528.796875 C 878.8125 533.128906 799.027344 582.128906 748.101562 650.988281 C 693.332031 576.367188 603.5625 524.949219 509.558594 528.789062 C 507.6875 530.378906 503.90625 533.558594 501.980469 535.148438 C 499.125 556.714844 501.820312 578.722656 500.660156 600.453125 C 481.628906 608.132812 453.484375 606.929688 444.425781 628.882812 C 447.992188 637.554688 448.820312 646.9375 448.433594 656.265625 C 447.605469 766.335938 449.199219 876.359375 447.660156 986.386719 C 446.230469 994.671875 447.769531 1009.328125 459.675781 1006.75 C 498.144531 992.757812 539.570312 987.707031 580.394531 990.070312 C 635.875 994.402344 693.492188 1007.414062 739.089844 1040.664062 C 743.535156 1040.664062 752.371094 1040.664062 756.753906 1040.714844 C 781.996094 1021.34375 812.613281 1010.8125 842.851562 1002.085938 C 907.660156 983.925781 977.625 985.621094 1041.328125 1007.40625 C 1054.933594 1005.105469 1051.257812 990.179688 1051.375 980.292969 C 1050.789062 872.523438 1051.285156 764.691406 1051.113281 656.867188 Z M 471.589844 976.941406 C 471.921875 863.292969 471.535156 749.59375 471.753906 635.957031 C 481.464844 632.496094 491.234375 629.046875 501.003906 625.640625 C 500.785156 716.398438 500.839844 807.167969 500.949219 897.925781 C 499.691406 914.445312 520.324219 911.53125 531.078125 912.574219 C 595.285156 915.261719 653.722656 947.917969 700.367188 990.332031 C 628.363281 961.253906 546.382812 954.664062 471.589844 976.941406 Z M 785.027344 996.152344 C 820.636719 961.304688 861.6875 930.035156 910.472656 916.582031 C 935.605469 908.074219 962.214844 907.253906 988.335938 904.785156 C 996.785156 903.742188 995.03125 893.210938 995.632812 887.277344 C 995.578125 800.464844 995.523438 713.660156 995.578125 626.84375 C 1006.058594 630.023438 1016.542969 633.207031 1027.074219 636.277344 C 1028.558594 749.925781 1027.128906 863.628906 1027.785156 977.265625 C 947.953125 955.160156 860.761719 963.058594 785.027344 996.152344 Z M 785.027344 996.152344 " fill-opacity="1" fill-rule="nonzero"/></g></svg>